<svg width="89" height="88" viewBox="0 0 89 88" fill="none" xmlns="http://www.w3.org/2000/svg">
<g filter="url(#filter0_dd_1_4441)">
<rect x="4.58337" y="3" width="80" height="80" rx="40" fill="white"/>
<path d="M41.4973 30.3445H39.5344C39.0522 30.3459 38.5817 30.4929 38.1844 30.7663C37.7872 31.0397 37.4818 31.4266 37.3082 31.8765L36.2789 34.5335L32.7361 36.5443L29.9115 36.1134C29.4412 36.0496 28.9625 36.127 28.5363 36.3358C28.1101 36.5447 27.7555 36.8755 27.5178 37.2863L26.5603 38.9619C26.3149 39.3793 26.2019 39.8612 26.2361 40.3441C26.2703 40.8271 26.4501 41.2883 26.7518 41.6669L28.5471 43.8931V47.9146L26.7997 50.1407C26.498 50.5193 26.3181 50.9805 26.284 51.4635C26.2498 51.9463 26.3628 52.4283 26.6082 52.8457L27.5657 54.5212C27.8034 54.932 28.1579 55.2629 28.5841 55.4717C29.0104 55.6806 29.4891 55.758 29.9594 55.6943L32.784 55.2635L36.2789 57.274L37.3082 59.9312C37.4818 60.3809 37.7872 60.768 38.1844 61.0415C38.5817 61.3146 39.0522 61.4617 39.5344 61.4632H41.5451C42.0273 61.4617 42.4979 61.3146 42.8951 61.0415C43.2923 60.768 43.5977 60.3809 43.7713 59.9312L44.8006 57.274L48.2955 55.2635L51.1201 55.6943C51.5904 55.758 52.0691 55.6806 52.4953 55.4717C52.9216 55.2629 53.2762 54.932 53.5139 54.5212L54.4714 52.8457C54.7168 52.4283 54.8297 51.9463 54.7957 51.4635C54.7614 50.9805 54.5817 50.5193 54.2799 50.1407L52.4845 47.9146V45.3216M35.7283 45.9038C35.7283 46.8507 36.0091 47.7763 36.5352 48.5636C37.0612 49.3509 37.8089 49.9645 38.6837 50.3269C39.5585 50.6892 40.5211 50.784 41.4498 50.5993C42.3785 50.4146 43.2315 49.9586 43.9011 49.2891C44.5706 48.6195 45.0266 47.7665 45.2113 46.8378C45.396 45.9091 45.3012 44.9465 44.9389 44.0717C44.5765 43.1969 43.9629 42.4492 43.1756 41.9232C42.3883 41.3971 41.4627 41.1163 40.5158 41.1163C39.2461 41.1163 38.0284 41.6207 37.1305 42.5185C36.2327 43.4164 35.7283 44.6341 35.7283 45.9038Z" stroke="#FF5697" stroke-width="2" stroke-linecap="round" stroke-linejoin="round"/>
<path d="M47.7279 33.1206C46.8506 32.968 46.8506 31.7087 47.7279 31.5561C50.9059 31.0032 53.4337 28.5825 54.1234 25.4313L54.1762 25.1898C54.3662 24.3228 55.6005 24.3174 55.7979 25.1827L55.8622 25.4642C56.5777 28.6005 59.1059 31.0008 62.2754 31.5521C63.1571 31.7055 63.1571 32.9712 62.2754 33.1246C59.1059 33.676 56.5777 36.0762 55.8622 39.2126L55.7979 39.4941C55.6005 40.3594 54.3662 40.354 54.1762 39.487L54.1234 39.2454C53.4337 36.0942 50.9059 33.6736 47.7279 33.1206Z" stroke="#FF5697" stroke-width="2" stroke-linecap="round" stroke-linejoin="round"/>
</g>
<defs>
<filter id="filter0_dd_1_4441" x="0.583374" y="0" width="88" height="88" filterUnits="userSpaceOnUse" color-interpolation-filters="sRGB">
<feFlood flood-opacity="0" result="BackgroundImageFix"/>
<feColorMatrix in="SourceAlpha" type="matrix" values="0 0 0 0 0 0 0 0 0 0 0 0 0 0 0 0 0 0 127 0" result="hardAlpha"/>
<feMorphology radius="1" operator="erode" in="SourceAlpha" result="effect1_dropShadow_1_4441"/>
<feOffset dy="1"/>
<feGaussianBlur stdDeviation="1"/>
<feComposite in2="hardAlpha" operator="out"/>
<feColorMatrix type="matrix" values="0 0 0 0 0.0666667 0 0 0 0 0.0666667 0 0 0 0 0.0666667 0 0 0 0.1 0"/>
<feBlend mode="normal" in2="BackgroundImageFix" result="effect1_dropShadow_1_4441"/>
<feColorMatrix in="SourceAlpha" type="matrix" values="0 0 0 0 0 0 0 0 0 0 0 0 0 0 0 0 0 0 127 0" result="hardAlpha"/>
<feOffset dy="1"/>
<feGaussianBlur stdDeviation="2"/>
<feComposite in2="hardAlpha" operator="out"/>
<feColorMatrix type="matrix" values="0 0 0 0 0.0666667 0 0 0 0 0.0666667 0 0 0 0 0.0666667 0 0 0 0.08 0"/>
<feBlend mode="normal" in2="effect1_dropShadow_1_4441" result="effect2_dropShadow_1_4441"/>
<feBlend mode="normal" in="SourceGraphic" in2="effect2_dropShadow_1_4441" result="shape"/>
</filter>
</defs>
</svg>
