<svg width="16" height="18" viewBox="0 0 16 18" fill="none" xmlns="http://www.w3.org/2000/svg">
<path d="M3.60388 9.2085L4.15954 10.3198C4.34759 10.696 4.44162 10.884 4.56724 11.0469C4.6787 11.1915 4.80833 11.3211 4.95294 11.4326C5.11589 11.5583 5.30396 11.6523 5.68006 11.8404L6.79138 12.396L5.68006 12.9517C5.30396 13.1397 5.11589 13.2337 4.95294 13.3593C4.80833 13.4708 4.6787 13.6004 4.56724 13.745C4.44162 13.908 4.34759 14.0961 4.15954 14.4722L3.60388 15.5835L3.04823 14.4722C2.86016 14.0961 2.76614 13.908 2.64052 13.745C2.52906 13.6004 2.39942 13.4708 2.25483 13.3593C2.09186 13.2337 1.90381 13.1397 1.52769 12.9517L0.416382 12.396L1.52769 11.8404C1.90381 11.6523 2.09186 11.5583 2.25483 11.4326C2.39942 11.3211 2.52906 11.1915 2.64052 11.0469C2.76614 10.884 2.86016 10.696 3.04823 10.3198L3.60388 9.2085Z" fill="url(#paint0_diamond_1_4256)"/>
<path d="M9.62471 1.41699L10.4595 3.58762C10.6593 4.10699 10.7592 4.36667 10.9145 4.58511C11.0522 4.77871 11.2214 4.94785 11.4149 5.08551C11.6334 5.24082 11.8931 5.34071 12.4124 5.54046L14.583 6.37532L12.4124 7.21018C11.8931 7.40994 11.6334 7.50981 11.4149 7.66514C11.2214 7.8028 11.0522 7.97194 10.9145 8.16554C10.7592 8.38396 10.6593 8.64365 10.4595 9.16302L9.62472 11.3336L8.78986 9.16302C8.5901 8.64365 8.49021 8.38396 8.3349 8.16554C8.19724 7.97194 8.0281 7.8028 7.8345 7.66514C7.61606 7.50981 7.35638 7.40994 6.83701 7.21018L4.66638 6.37532L6.83701 5.54046C7.35638 5.34071 7.61606 5.24082 7.8345 5.08551C8.0281 4.94785 8.19724 4.77871 8.3349 4.58511C8.49021 4.36667 8.5901 4.10699 8.78986 3.58762L9.62471 1.41699Z" fill="url(#paint1_diamond_1_4256)"/>
<defs>
<radialGradient id="paint0_diamond_1_4256" cx="0" cy="0" r="1" gradientUnits="userSpaceOnUse" gradientTransform="translate(3.60388 12.396) rotate(90) scale(3.18748 3.1875)">
<stop offset="0.32" stop-color="#FADD3A"/>
<stop offset="0.81" stop-color="#FFCE84"/>
<stop offset="1" stop-color="#FEB75D"/>
</radialGradient>
<radialGradient id="paint1_diamond_1_4256" cx="0" cy="0" r="1" gradientUnits="userSpaceOnUse" gradientTransform="translate(9.62469 6.37531) rotate(90) scale(4.95832 4.95831)">
<stop offset="0.32" stop-color="#FADD3A"/>
<stop offset="0.81" stop-color="#FFCE84"/>
<stop offset="1" stop-color="#FEB75D"/>
</radialGradient>
</defs>
</svg>
